<svg width="117" height="235" viewBox="0 0 117 235" fill="none" xmlns="http://www.w3.org/2000/svg">
<path d="M28.3984 3.66431H34.3529C37.6437 3.66431 40.3075 6.32816 40.3075 9.61892C40.3075 12.9095 37.6437 15.5733 34.3529 15.5733C31.0623 15.5733 28.3984 12.9095 28.3984 9.61892V3.66431Z" fill="black"/>
<path d="M91.6082 3.66431H85.6538C82.363 3.66431 79.6992 6.32816 79.6992 9.61892C79.6992 12.9095 82.363 15.5733 85.6538 15.5733C88.9444 15.5733 91.6082 12.9095 91.6082 9.61892V3.66431Z" fill="black"/>
<path d="M33.8945 3.66431H85.1949V15.5733H33.8945V3.66431Z" fill="black"/>
<path d="M99.3577 230.256V234.516H16.9842V230.256H99.3577ZM112.096 217.476V17.0402C112.096 9.98193 106.393 4.26006 99.3577 4.26005H16.9842C9.94913 4.26005 4.24606 9.98193 4.24606 17.0402V217.476C4.24606 224.534 9.94913 230.256 16.9842 230.256V234.516C7.67739 234.516 0.119007 227.006 0.00145129 217.696L0 217.476V17.0402C4.95404e-07 7.7027 7.48572 0.119398 16.7647 0.00145607L16.9842 0H99.3577L99.5773 0.00145607C108.856 0.1194 116.342 7.70271 116.342 17.0402V217.476L116.34 217.696C116.223 227.006 108.665 234.516 99.3577 234.516V230.256C106.393 230.256 112.096 224.534 112.096 217.476Z" fill="black"/>
</svg>
